<?xml version="1.0" encoding="utf-8"?>
<svg xmlns="http://www.w3.org/2000/svg" xmlns:xlink="http://www.w3.org/1999/xlink" version= "1.1" width="1920px" height="1300px" viewBox="-600 64 1920 1300">
<g id="layer1">
<g style="fill:rgb(0,174,199); fill-opacity:1.0; stroke-linejoin: miter">
<path d="M-600.0009,62.661922C-600.3555,62.661922,-600.6956,62.80279,-600.94635,63.053543C-601.1971,63.304295,-601.338,63.644386,-601.338,63.999L-601.33704,1364.0C-601.33704,1364.7384,-600.7384,1365.337,-599.99994,1365.337L1320.001,1365.338C1320.3557,1365.338,1320.6958,1365.1971,1320.9465,1364.9464C1321.1973,1364.6957,1321.3381,1364.3556,1321.3381,1364.001L1321.3372,64.0C1321.3372,63.26155,1320.7385,62.66292,1320.0,62.66292L-600.0009,62.661922 Z"/>
</g>
<g style="fill:rgb(0,0,0); fill-opacity:0.6; stroke-linejoin: miter">
<path d="M967.7552,1281.7673L961.976,1283.8757Q920.88824,1290.2476,721.5308,1294.0679Q520.794,1297.885,248.76804,1297.1636Q-10.845306,1296.1552,-166.49779,1291.2622Q-216.37057,1289.6805,-248.65765,1287.8154L-275.79407,1285.898Q-298.15692,1283.9188,-298.40836,1281.7673Q-291.61963,1275.1647,-112.98299,1270.7803Q65.65369,1266.3959,334.67343,1266.2292Q603.6933,1266.3959,782.3299,1270.7803Q960.9665,1275.1647,967.7552,1281.7673"/>
</g>
<g style="fill:rgb(0,0,0); fill-opacity:1.0; stroke-linejoin: miter">
<path d="M294.69357,285.93533L294.69366,285.93686L294.69373,285.93835L294.69357,285.93533"/>
</g>
<g style="fill:rgb(255,184,155); fill-opacity:1.0; stroke-linejoin: miter">
<path d="M58.27805,755.51935Q60.623547,753.30115,64.24222,754.03455Q65.13713,754.2343,66.48842,754.95306Q73.052414,759.16943,75.15762,759.8831Q78.3405,761.2391,82.66989,761.7019Q92.89131,762.64575,103.14921,760.5083Q107.23219,759.51416,107.406715,757.51794Q92.4314,748.3736,93.16355,746.23566Q93.079056,744.61176,95.949554,743.99976Q98.78589,743.445,101.72074,744.5684Q103.11251,745.10736,104.53737,746.114Q110.80507,751.17365,113.17159,752.6359L127.08096,761.3679Q128.93959,762.5776,131.95734,765.3325Q132.41928,765.7064,132.99867,766.0278Q135.0869,767.3457,144.84363,767.9277L144.59239,789.2495Q112.706665,786.76227,91.2698,778.4551Q77.573395,773.0952,62.274616,763.2806Q55.252926,758.57544,58.20679,755.5959 Z"/>
</g>
<g style="fill:rgb(255,255,255); fill-opacity:1.0; stroke-linejoin: miter">
<path d="M135.67867,763.5084L146.56523,764.75037L150.61873,795.0853L150.61902,795.1332L136.33844,793.2691L135.67867,763.5183 Z"/>
</g>
<g style="fill:rgb(0,0,0); fill-opacity:1.0; stroke-linejoin: miter">
<path d="M337.52084,610.56354L346.80173,625.71625L405.85803,657.17053C412.06732,711.7265,416.8118,742.9996,419.17075,751.27094C421.15457,758.2285,422.80258,764.1804,424.6928,769.027C426.5256,773.7253,430.89374,781.93616,437.8608,793.7004C439.22235,795.9992,440.1287,798.99915,439.80862,802.4857C438.63165,815.293,435.94336,822.45404,432.81143,824.0822C431.06116,826.48456,422.8529,826.21564,408.187,823.27454C400.7415,818.802,394.22607,812.0702,388.88025,802.93884C386.6792,799.17975,384.89725,794.8557,383.29416,790.1032L376.8631,767.8482C375.44666,778.87805,374.34116,785.8497,374.7054,788.69446C375.2625,793.05194,376.28775,838.69916,376.63937,925.83453L362.18442,934.0857L355.37842,1114.9834C354.59033,1133.9536,353.20526,1148.4495,352.5562,1158.5845C351.31033,1178.0227,342.3076,1210.5088,324.21228,1255.9766L284.05426,1248.9512L283.41238,1227.8008C283.54474,1226.5876,284.2153,1225.1377,285.4245,1223.4497C292.32864,1218.3779,295.69434,1215.2996,295.5216,1214.2109C295.82733,1213.9802,295.90933,1212.8171,295.7683,1210.7205C292.35483,1201.094,291.0964,1195.1782,291.99344,1192.9729C292.1286,1189.9836,295.41528,1184.19,301.853,1175.5913C300.2212,1170.26,299.52368,1165.6948,299.95453,1161.9136C303.2948,1132.5857,304.58917,1114.436,304.28326,1107.4048C303.93283,1099.3518,303.65036,1090.6387,301.93378,1081.4329C296.7619,1053.6931,292.45886,1029.6809,289.41504,1009.3C288.59946,1003.83844,287.3207,998.52655,286.046,993.28705L280.54623,972.47064L250.3707,1046.2778C249.85934,1048.6653,249.33817,1053.9641,248.93832,1062.1819C248.55554,1070.0469,248.86368,1078.7583,249.732,1088.3105L258.6082,1173.5288C258.89258,1178.9224,261.03992,1187.7991,265.0502,1200.1621L261.78363,1214.3657L268.9175,1227.0474C269.68958,1230.2073,269.75345,1235.158,269.10873,1241.9021L211.03214,1241.0889L220.01903,1215.6628L206.22697,1197.4851C191.91125,1103.5505,186.21431,1052.5786,187.11221,1044.2664C191.65031,1002.2691,194.44286,977.6966,196.14117,970.3829C199.25493,956.97455,202.2141,947.9781,212.71428,919.3478L197.36778,920.23505C204.10678,887.2118,213.61823,843.791,215.12733,832.1956C217.4653,814.2307,219.04744,804.9969,219.13322,795.794L146.98164,800.4202L144.877,763.5207L210.43365,754.293C218.86267,726.91174,223.39049,708.7715,225.05624,700.0496C226.2296,693.9043,226.00937,683.79266,225.23938,669.3476C224.8814,662.62555,226.09727,657.769,226.76309,654.73364C227.9739,649.2124,230.75604,642.5326,235.35443,634.74677L273.1267,623.847L280.23837,618.74945L337.29712,610.5942 Z"/>
</g>
<g style="fill:rgb(255,255,255); fill-opacity:1.0; stroke-linejoin: miter">
<path d="M333.92813,607.5887L336.5422,615.9566Q334.9843,634.6434,334.4835,635.1136Q333.90485,637.44366,332.36884,641.3974Q322.45636,666.22363,319.89502,673.2989L313.86926,690.43225Q308.17776,707.64435,304.566,726.6671Q299.97836,747.9946,288.7031,842.229Q252.31842,847.27716,231.98274,843.5916Q241.03865,770.51587,248.24509,733.7695Q256.8629,685.8685,281.4812,618.2693L333.86404,607.6015 Z"/>
</g>
<g style="fill:rgb(255,255,255); fill-opacity:1.0; stroke-linejoin: miter">
<path d="M411.5479,785.0367L437.44852,798.0994Q428.05136,809.9001,423.4798,812.812Q418.6712,816.2675,414.05463,813.9555Q411.08475,812.4404,408.796,808.9244Q406.64972,805.55194,406.32516,801.8582Q405.6062,795.4562,411.54636,785.0367 Z"/>
</g>
<g style="fill:rgb(0,0,0); fill-opacity:1.0; stroke-linejoin: miter">
<path d="M289.60965,634.623L299.59323,637.0468L305.8161,649.52295L292.8292,657.2004Q294.0682,657.2506,293.77237,663.3403Q293.54065,669.4691,291.6817,685.26953Q288.68872,711.3523,273.77142,818.7887L258.70212,831.98346L247.80002,818.2496L247.81506,817.98376L275.66504,677.3264L283.86832,654.7441L281.99026,641.1675L289.59387,634.6384 Z"/>
</g>
<g style="fill:rgb(0,0,0); fill-opacity:1.0; stroke-linejoin: miter">
<path d="M307.23032,507.0351Q298.35498,507.64966,288.27112,513.51874Q278.27414,519.1551,275.02512,525.8836Q272.2078,531.2494,271.6641,543.3231Q270.86694,567.1502,272.28937,577.0539L331.72217,586.09705Q343.68695,582.55554,344.57117,577.3975Q344.93314,576.18854,345.1494,574.29626L345.9412,565.3284Q348.13168,549.4399,348.1785,546.1009Q348.6593,538.05176,347.08423,533.04736Q344.56906,523.44525,329.59494,513.87286Q317.72183,505.98523,307.2383,507.0351 Z"/>
</g>
<g style="fill:rgb(255,184,155); fill-opacity:1.0; stroke-linejoin: miter">
<path d="M319.7558,526.7561L304.79483,529.5267Q302.34222,529.9156,293.43457,529.45776L290.72433,529.6933Q287.34015,530.23706,283.8654,532.987Q278.54962,537.18115,276.9516,545.4656Q275.58337,551.2665,276.72153,571.2961Q276.7086,571.6906,276.32596,570.8208Q274.52808,565.2701,273.90665,564.1447Q273.21655,562.6146,272.33554,562.14655Q270.00974,561.36194,268.3805,567.7344Q267.31116,573.43896,269.00787,578.63477Q269.62872,580.3752,270.49847,581.387Q270.83176,581.9584,273.61057,584.1114Q274.1926,584.72833,274.39838,585.2652Q274.5352,584.7011,275.97507,592.23413L277.21683,596.3043Q277.92236,598.29755,278.6441,599.7801Q278.96146,600.59485,280.80435,603.2631L281.32162,604.6872Q282.16275,606.99164,280.81656,619.8725L283.15427,622.6195Q287.11212,627.74475,295.31693,636.0316Q303.14798,634.81024,314.59225,628.3954Q324.33646,623.4271,330.9705,617.7553Q334.0268,615.3171,335.06863,614.22906Q334.36197,608.8715,334.46555,604.4622Q334.24203,604.2648,336.46503,600.01263Q336.80008,599.23395,336.97012,598.39136Q337.27176,597.5464,336.84436,592.97284Q336.876,591.97076,337.1256,591.51843Q337.36053,590.89825,338.45444,590.39246L343.28485,588.79346Q344.13242,588.38904,344.98297,587.27356Q345.814,586.09204,346.47983,584.2353Q350.07025,574.5466,350.05945,573.63904Q350.8403,570.2415,349.73325,568.2424Q348.20767,565.6401,345.9448,566.1078Q344.81412,566.4315,343.64264,568.2656Q343.08,568.8698,339.89072,576.19635Q339.2382,577.3925,339.13437,576.86346Q338.95148,576.1885,339.1968,573.71704Q341.74844,554.5497,341.53757,551.3675Q341.68353,544.3148,339.80017,539.46277Q333.53784,525.84296,319.85913,526.7462 Z"/>
</g>
<g style="fill:rgb(250,84,34); fill-opacity:0.15294118; stroke-linejoin: miter">
<path d="M281.07117,604.47205L301.64273,632.36694L330.4986,607.5887Q320.3193,616.00446,315.01282,618.7144Q308.83218,621.9747,303.89197,621.6512Q293.8426,621.0389,281.11053,604.5225 Z"/>
</g>
<g style="fill:rgb(255,184,155); fill-opacity:1.0; stroke-linejoin: miter">
<path d="M467.48425,761.0055Q470.4266,760.9602,472.06055,763.3326Q473.6156,766.196,471.88437,768.0253Q471.13788,768.79663,469.57858,769.4242Q463.07846,771.36426,462.59473,771.74854Q460.93057,772.5125,459.43625,773.70416Q457.17767,775.50977,454.7539,778.39594Q453.4414,779.7446,448.62262,787.0048Q447.26605,788.7676,445.48953,790.35077Q444.20117,791.4923,442.41144,792.7974Q432.386,799.6909,431.4079,800.67975Q427.66342,803.77344,424.65692,807.45685L420.38458,808.4841Q415.8445,807.9981,414.00015,806.3768Q412.04855,804.7171,410.88632,800.404Q408.30847,790.40393,414.06308,785.05206Q415.3975,783.6981,417.349,782.24896L426.34683,775.94775Q428.56577,774.44055,432.45404,772.68713Q442.5165,767.9062,450.4029,768.779Q463.24677,760.8558,467.4052,761.00806 Z"/>
</g>
<g style="fill:rgb(0,0,0); fill-opacity:1.0; stroke-linejoin: miter">
<path d="M289.69473,1246.6804L323.10547,1249.4421Q321.16205,1262.6902,321.27652,1267.866Q321.28232,1270.165,321.65475,1272.5916L323.2613,1280.7488Q323.50928,1282.8005,323.34262,1284.4824Q322.61502,1292.3809,313.4222,1293.6128Q309.10214,1294.8044,284.01462,1294.3289Q278.86966,1294.3291,277.62003,1292.6316Q275.3535,1290.0308,277.48203,1280.8928Q278.15997,1278.354,278.95508,1276.9646Q279.3273,1276.2993,279.80444,1275.73L282.00336,1273.471Q282.53128,1272.8838,283.06686,1272.0444Q284.34686,1270.0132,285.7266,1266.1782Q288.63855,1258.2075,289.6919,1246.7095 Z"/>
</g>
<g style="fill:rgb(0,0,0); fill-opacity:1.0; stroke-linejoin: miter">
<path d="M216.62314,1235.4683L267.311,1240.2239Q269.00772,1246.154,269.11282,1252.9937Q269.39526,1255.258,268.07568,1279.3655L238.33537,1281.0828L232.6325,1276.2915Q227.57672,1277.2219,223.24574,1278.2922Q201.6102,1284.2239,198.08687,1284.728Q188.6529,1286.6501,181.07152,1286.7236Q162.06996,1286.3799,152.94843,1280.3235Q149.30771,1277.0847,155.23874,1273.9944Q157.46967,1272.8691,160.83682,1272.0286Q162.0939,1271.6345,171.69786,1269.9146Q174.01367,1269.4302,175.34491,1269.0134Q178.5102,1268.0901,181.44511,1266.0078L216.54918,1235.5337 Z"/>
</g>
<g style="fill:rgb(0,0,0); fill-opacity:1.0; stroke-linejoin: miter">
<path d="M585.7296,686.2106L602.5304,686.2116L619.3312,686.2127Q619.3312,981.29376,619.3312,1276.3746Q602.5304,1276.3759,585.7296,1276.3768Q585.7296,981.29376,585.7296,686.2106"/>
</g>
<g style="fill:rgb(0,0,0); fill-opacity:1.0; stroke-linejoin: miter">
<path d="M555.36194,1105.6163L602.5304,1105.6173L649.6989,1105.6183Q649.6989,1192.4502,649.6989,1279.2821Q602.5304,1279.2832,555.36194,1279.2842Q555.36194,1192.4503,555.36194,1105.6163"/>
</g>
<g style="fill:rgb(0,0,0); fill-opacity:1.0; stroke-linejoin: miter">
<path d="M540.73804,1158.0657L602.5304,1158.0663L664.3228,1158.0668Q664.3228,1219.8586,664.3228,1281.6505Q602.5304,1281.6509,540.73804,1281.6512Q540.73804,1219.8585,540.73804,1158.0657"/>
</g>
<g style="fill:rgb(0,0,0); fill-opacity:1.0; stroke-linejoin: miter">
<path d="M594.47424,206.27232L602.5304,206.27315L610.5867,206.27394L610.5867,744.0771Q602.5304,744.0779,594.47424,744.0787Q594.47424,475.1755,594.47424,206.27232"/>
</g>
<g>
<g style="fill:rgb(255,255,255); fill-opacity:1.0; stroke-linejoin: miter">
<path d="M635.68243,220.34685L796.8213,219.3203L813.70264,252.40219L797.2461,285.9968L636.1075,287.02463L652.5644,253.54556C652.5644,253.54617,635.68243,220.34685,635.68243,220.34685 Z"/>
</g>
<g style="fill:rgb(255,255,255); fill-opacity:1.0; stroke-linejoin: miter">
<path d="M584.6245,243.7181L632.07635,243.71849L679.5284,243.71886Q679.5284,254.0687,679.5284,264.4185Q632.07635,264.4188,584.6245,264.4192Q584.6245,254.06863,584.6245,243.7181"/>
</g>
<g style="fill:rgb(255,255,255); fill-opacity:1.0; stroke-linejoin: miter">
<path d="M591.0951,241.94438L603.48083,241.94453L615.86646,241.94466Q615.86646,255.11252,615.86646,268.2804Q603.48083,268.28055,591.0951,268.2807Q591.0951,255.11252,591.0951,241.94438"/>
</g>
</g>
<g>
<g style="fill:rgb(255,255,255); fill-opacity:1.0; stroke-linejoin: miter">
<path d="M570.2678,297.80734L409.1287,296.7808L392.2475,329.86273L408.70407,363.45728L569.8428,364.48517L553.38574,331.00604C553.38574,331.00668,570.2678,297.80734,570.2678,297.80734 Z"/>
</g>
<g style="fill:rgb(255,255,255); fill-opacity:1.0; stroke-linejoin: miter">
<path d="M621.32556,321.17862L573.8738,321.17902L526.42194,321.1794Q526.42194,331.52924,526.42194,341.879Q573.8738,341.87936,621.32556,341.87973Q621.32556,331.52917,621.32556,321.17862"/>
</g>
<g style="fill:rgb(255,255,255); fill-opacity:1.0; stroke-linejoin: miter">
<path d="M614.8551,319.40488L602.46924,319.40506L590.0836,319.4052Q590.0836,332.5731,590.0836,345.74094Q602.46924,345.74112,614.8551,345.74124Q614.8551,332.5731,614.8551,319.40488"/>
</g>
</g>
<g>
<g style="fill:rgb(255,255,255); fill-opacity:1.0; stroke-linejoin: miter">
<path d="M635.3117,392.1383L796.4508,391.1117L813.33203,424.19363L796.8755,457.78824L635.73676,458.81607L652.1939,425.33698C652.1939,425.33765,635.3117,392.1383,635.3117,392.1383 Z"/>
</g>
<g style="fill:rgb(255,255,255); fill-opacity:1.0; stroke-linejoin: miter">
<path d="M584.254,415.50955L631.70575,415.50992L679.15765,415.5103Q679.15765,425.8601,679.15765,436.20993Q631.70575,436.21027,584.254,436.21063Q584.254,425.86008,584.254,415.50955"/>
</g>
<g style="fill:rgb(255,255,255); fill-opacity:1.0; stroke-linejoin: miter">
<path d="M590.7245,413.7358L603.1101,413.73593L615.496,413.7361Q615.496,426.90396,615.496,440.07187Q603.1101,440.07202,590.7245,440.07214Q590.7245,426.90396,590.7245,413.7358"/>
</g>
</g>
<g>
<g style="fill:rgb(255,255,255); fill-opacity:1.0; stroke-linejoin: miter">
<path d="M570.94385,477.035L409.8046,476.0084L392.92334,509.0904L409.3799,542.6849L570.5188,543.7127L554.06177,510.2337C554.06177,510.2343,570.94385,477.035,570.94385,477.035 Z"/>
</g>
<g style="fill:rgb(255,255,255); fill-opacity:1.0; stroke-linejoin: miter">
<path d="M622.00146,500.40622L574.5498,500.40665L527.09784,500.407Q527.09784,510.75677,527.09784,521.10657Q574.5498,521.10693,622.00146,521.1073Q622.00146,510.75677,622.00146,500.40622"/>
</g>
<g style="fill:rgb(255,255,255); fill-opacity:1.0; stroke-linejoin: miter">
<path d="M615.531,498.63248L603.14526,498.63266L590.7595,498.63278Q590.7595,511.80072,590.7595,524.9685Q603.14526,524.9687,615.531,524.96875Q615.531,511.80072,615.531,498.63248"/>
</g>
</g>
<g>
<g style="fill:rgb(255,255,255); fill-opacity:1.0; stroke-linejoin: miter">
<path d="M144.40508,416.56546Q143.86845,416.6703,143.32614,416.78244Q134.01509,418.70883,126.89694,422.24747Q119.737686,425.5878,114.095055,430.26724Q108.60954,434.7076,104.51754,439.89243Q100.42558,445.07733,97.249,450.69257L114.47742,464.06836Q117.421684,459.32745,120.48897,455.18097Q123.59723,451.23236,127.463745,447.9534Q131.13216,444.71542,136.19414,442.22208Q141.099,439.9678,147.83466,438.57422Q148.20018,438.49847,148.56099,438.428Q156.61061,436.85596,162.35115,437.8434Q168.34904,438.875,172.37262,441.34787Q176.19809,443.8618,178.08357,446.9838Q179.96895,450.10556,180.50177,452.68103Q181.77237,458.8224,180.9321,463.74774Q180.05081,468.47485,177.42078,472.73755Q174.94781,476.76123,170.76706,480.51843Q166.58626,484.27563,161.17586,488.08057Q156.51695,491.52356,153.76389,495.19183Q151.16795,498.62122,149.92465,502.597Q148.83846,506.33356,148.82477,510.2616Q148.9682,513.95056,149.74698,517.7146Q150.52568,521.47845,151.74162,525.3587Q152.91658,529.0407,154.09157,532.7228L167.95903,529.85376Q166.68848,523.7124,166.90022,519.74335Q166.914,515.8157,168.20511,513.06934Q169.29816,510.3642,171.34755,508.28748Q173.4379,506.409,176.04063,504.01117Q184.99654,496.37384,190.9056,489.9867Q196.61656,483.64032,199.62926,477.2326Q202.68283,471.02307,203.3114,464.07574Q203.7418,457.16937,201.89743,448.25436Q200.66782,442.31122,196.77402,435.4731Q193.11931,428.79214,186.06259,423.6412Q179.20403,418.44955,168.59506,416.09952Q158.37854,413.83636,144.40508,416.56546 Z M165.43536,549.796Q165.35492,549.81177,165.27425,549.82837Q160.3216,550.8532,157.69151,555.1159Q155.02042,559.1804,156.04512,564.13306Q157.06973,569.0857,161.13432,571.75684Q165.08838,574.187,169.9396,573.23944Q170.02502,573.22284,170.11064,573.20514Q175.06335,572.1805,177.93251,568.0748Q180.64458,564.2083,179.61995,559.2556Q178.59521,554.30304,174.29155,551.47485Q170.29318,548.84735,165.43536,549.796 Z"/>
</g>
</g>
<g style="fill:rgb(0,0,0); fill-opacity:1.0; stroke-linejoin: miter">
<path d="M-62.99438,1127.9734L40.99008,1127.9741L144.97455,1127.9747Q144.97455,1204.703,144.97455,1281.4315Q40.990067,1281.4321,-62.994415,1281.433Q-62.994396,1204.7031,-62.99438,1127.9734"/>
</g>
<g style="fill:rgb(0,0,0); fill-opacity:1.0; stroke-linejoin: miter">
<path d="M13.547314,1102.6481L13.547314,1102.6481L74.13214,1102.649C78.468346,1102.649,81.983505,1106.1642,81.983505,1110.5006L81.983505,1110.5006L81.983505,1151.4817C81.983505,1155.8179,78.468346,1159.333,74.13214,1159.3333L74.13214,1159.3333L13.547314,1159.3342C11.464943,1159.3342,9.467854,1158.5071,7.9953804,1157.0345C6.522911,1155.5621,5.6956825,1153.5651,5.6956825,1151.4828L5.6956825,1151.4828L5.6956825,1110.4995C5.6956825,1108.4172,6.522911,1106.4202,7.9953804,1104.9476C9.467854,1103.4752,11.464943,1102.6481,13.547314,1102.6481L13.547314,1102.6481 M13.547047,1118.3511L21.398685,1110.4995L21.398685,1151.4828L13.547047,1143.6312L74.13186,1143.6302L66.280495,1151.4817L66.280495,1110.5006L74.13186,1118.3522L13.547047,1118.3511 Z"/>
</g>
</g>
</svg>